# xmcd CD database file
#
# Track frame offsets:
#	150
#	20660
#	38700
#	59225
#	76677
#	95527
#	114715
#	134552
#	155495
#	173817
#	193330
#
# Disc length: 2831 seconds
#
# Revision: 0
# Processed by: cddbd v1.5.1PL0 Copyright (c) Steve Scherf et al.
# Submitted via: cdripper 1.0.7
#
DISCID=9a0b0d0b
DTITLE=Chuck Roberson - Something Good for You
DYEAR=1996
DGENRE=Blues
TTITLE0=You Can Do What You Feel and Still Be a Lady
TTITLE1=Shut In, Shut Up
TTITLE2=A Whiskey Glass and a Woman's Ass
TTITLE3=She's Been Slippin' Out on Me
TTITLE4=Something Good for You
TTITLE5=The Town I Live In
TTITLE6=The Fireman
TTITLE7=A Private Affair
TTITLE8=It'll Make You Want to Slap Your Mama
TTITLE9=Lollipop Man II [X-Rated]
TTITLE10=Something Good for You (X-Rated)
EXTD=YEAR: 1996
EXTT0=
EXTT1=
EXTT2=
EXTT3=
EXTT4=
EXTT5=
EXTT6=
EXTT7=
EXTT8=
EXTT9=
EXTT10=
PLAYORDER=
